<?xml version="1.0" encoding="UTF-8"?>
<svg width="18px" height="12px" viewBox="0 0 18 12" version="1.1" xmlns="http://www.w3.org/2000/svg" xmlns:xlink="http://www.w3.org/1999/xlink">
    <!-- Generator: Sketch 45.2 (43514) - http://www.bohemiancoding.com/sketch -->
    <title>email-filled-closed-envelope</title>
    <desc>Created with Sketch.</desc>
    <defs></defs>
    <g id="Page-1" stroke="none" stroke-width="1" fill="none" fill-rule="evenodd">
        <g id="Desktop" transform="translate(-206.000000, -44.000000)" fill-rule="nonzero" fill="#FFFFFF">
            <g id="contact" transform="translate(206.000000, 16.000000)">
                <g id="email-filled-closed-envelope" transform="translate(0.000000, 28.000000)">
                    <path d="M8.97857561,7.1945561 L8.98240976,7.1945561 C9.11748293,7.1945561 9.25097561,7.15536585 9.35897561,7.08400976 L9.38827317,7.06519024 C9.39465366,7.06103415 9.40132683,7.05725854 9.40802927,7.05278049 L9.74923902,6.7704878 L17.8934049,0.0497853659 C17.8765463,0.0265170732 17.8478341,0.010595122 17.8172488,0.010595122 L0.0946243902,0.010595122 C0.0726439024,0.010595122 0.0522439024,0.0185560976 0.036,0.0319317073 L8.55673171,7.05497561 C8.66411707,7.14389268 8.81733659,7.1945561 8.97857561,7.1945561 Z M0,0.962897561 L0,10.9249463 L6.10390244,5.9940878 L0,0.962897561 Z M11.8146732,6.02754146 L17.9121951,10.9274927 L17.9121951,0.996029268 L11.8146732,6.02754146 Z M9.87602927,7.62687805 C9.6329561,7.8263122 9.31501463,7.9362439 8.98112195,7.9362439 C8.64597073,7.9362439 8.32832195,7.8269561 8.08589268,7.62845854 L6.68789268,6.47546341 L0,11.8772488 L0,11.8944293 C0,11.9457366 0.0439609756,11.9893756 0.0958829268,11.9893756 L17.8175707,11.9893756 C17.8685268,11.9893756 17.9121659,11.9457366 17.9121659,11.8941073 L17.9121659,11.8781854 L11.230039,6.50926829 L9.87602927,7.62687805 Z" id="Shape"></path>
                </g>
            </g>
        </g>
    </g>
</svg>