<?xml version="1.0" encoding="UTF-8"?>
<svg width="18px" height="18px" viewBox="0 0 18 18" version="1.1" xmlns="http://www.w3.org/2000/svg" xmlns:xlink="http://www.w3.org/1999/xlink">
    <!-- Generator: Sketch 45.2 (43514) - http://www.bohemiancoding.com/sketch -->
    <title>facebook</title>
    <desc>Created with Sketch.</desc>
    <defs></defs>
    <g id="Page-1" stroke="none" stroke-width="1" fill="none" fill-rule="evenodd">
        <g id="Mobile" transform="translate(-254.000000, -16.000000)" fill-rule="nonzero" fill="#FFFFFF">
            <g id="facebook" transform="translate(254.000000, 16.000000)">
                <path d="M17.007,0 L0.993,0 C0.44475,0 0,0.44475 0,0.993 L0,17.007 C0,17.556 0.44475,18 0.993,18 L9.6135,18 L9.6135,11.0295 L7.26675,11.0295 L7.26675,8.31375 L9.6135,8.31375 L9.6135,6.3075 C9.6135,3.98325 11.034,2.71875 13.10775,2.71875 C14.1015,2.71875 14.95575,2.7915 15.20475,2.8245 L15.20475,5.2545 L13.764,5.2545 C12.639,5.2545 12.42,5.79525 12.42,6.58275 L12.42,8.316 L15.108,8.316 L14.75925,11.0385 L12.42,11.0385 L12.42,18 L17.00625,18 C17.556,18 18,17.556 18,17.007 L18,0.993 C18,0.44475 17.556,0 17.007,0" id="Shape"></path>
            </g>
        </g>
    </g>
</svg>