<?xml version="1.0" encoding="UTF-8"?>
<svg width="18px" height="18px" viewBox="0 0 18 18" version="1.1" xmlns="http://www.w3.org/2000/svg" xmlns:xlink="http://www.w3.org/1999/xlink">
    <!-- Generator: Sketch 45.2 (43514) - http://www.bohemiancoding.com/sketch -->
    <title>instagram</title>
    <desc>Created with Sketch.</desc>
    <defs></defs>
    <g id="Page-1" stroke="none" stroke-width="1" fill="none" fill-rule="evenodd">
        <g id="Mobile" transform="translate(-228.000000, -16.000000)" fill-rule="nonzero" fill="#FFFFFF">
            <g id="instagram" transform="translate(228.000000, 16.000000)">
                <path d="M9,0 C6.555,0 6.24975,0.01125 5.28975,0.054 C4.33125,0.099 3.67875,0.24975 3.105,0.4725 C2.51325,0.702 2.01075,1.01025 1.5105,1.5105 C1.01025,2.01075 0.70125,2.5125 0.4725,3.105 C0.24975,3.67875 0.09825,4.33125 0.054,5.28975 C0.009,6.24975 0,6.555 0,9 C0,11.445 0.01125,11.75025 0.054,12.71025 C0.099,13.668 0.24975,14.32125 0.4725,14.895 C0.702,15.486 1.01025,15.98925 1.5105,16.4895 C2.01075,16.989 2.5125,17.29875 3.105,17.5275 C3.6795,17.7495 4.332,17.90175 5.28975,17.946 C6.24975,17.991 6.555,18 9,18 C11.445,18 11.75025,17.98875 12.71025,17.946 C13.668,17.901 14.32125,17.7495 14.895,17.5275 C15.486,17.298 15.98925,16.989 16.4895,16.4895 C16.989,15.98925 17.29875,15.48825 17.5275,14.895 C17.7495,14.32125 17.90175,13.668 17.946,12.71025 C17.991,11.75025 18,11.445 18,9 C18,6.555 17.98875,6.24975 17.946,5.28975 C17.901,4.332 17.7495,3.678 17.5275,3.105 C17.298,2.51325 16.989,2.01075 16.4895,1.5105 C15.98925,1.01025 15.48825,0.70125 14.895,0.4725 C14.32125,0.24975 13.668,0.09825 12.71025,0.054 C11.75025,0.009 11.445,0 9,0 Z M9,1.62 C11.40225,1.62 11.68875,1.632 12.6375,1.67325 C13.515,1.7145 13.99125,1.86 14.30775,1.9845 C14.72925,2.14725 15.02775,2.34225 15.34425,2.6565 C15.6585,2.9715 15.8535,3.27075 16.01625,3.69225 C16.13925,4.00875 16.28625,4.485 16.326,5.3625 C16.36875,6.312 16.3785,6.597 16.3785,9 C16.3785,11.403 16.36725,11.68875 16.323,12.6375 C16.27725,13.515 16.131,13.99125 16.00725,14.30775 C15.83925,14.72925 15.648,15.02775 15.333,15.34425 C15.01875,15.6585 14.715,15.8535 14.298,16.01625 C13.983,16.13925 13.49925,16.28625 12.62175,16.326 C11.66625,16.36875 11.385,16.3785 8.9775,16.3785 C6.56925,16.3785 6.288,16.36725 5.33325,16.323 C4.455,16.27725 3.97125,16.131 3.65625,16.00725 C3.2295,15.83925 2.93625,15.648 2.622,15.333 C2.30625,15.01875 2.1045,14.715 1.947,14.298 C1.82325,13.983 1.67775,13.49925 1.632,12.62175 C1.59825,11.67675 1.58625,11.385 1.58625,8.98875 C1.58625,6.59175 1.59825,6.29925 1.632,5.343 C1.67775,4.4655 1.82325,3.9825 1.947,3.6675 C2.1045,3.24 2.30625,2.9475 2.622,2.63175 C2.93625,2.3175 3.2295,2.115 3.65625,1.95825 C3.97125,1.83375 4.4445,1.6875 5.322,1.6425 C6.27825,1.60875 6.5595,1.5975 8.96625,1.5975 L9,1.62 L9,1.62 Z M9,4.3785 C6.44625,4.3785 4.3785,6.4485 4.3785,9 C4.3785,11.55375 6.4485,13.6215 9,13.6215 C11.55375,13.6215 13.6215,11.5515 13.6215,9 C13.6215,6.44625 11.5515,4.3785 9,4.3785 Z M9,12 C7.3425,12 6,10.6575 6,9 C6,7.3425 7.3425,6 9,6 C10.6575,6 12,7.3425 12,9 C12,10.6575 10.6575,12 9,12 Z M14.8845,4.19625 C14.8845,4.7925 14.4,5.27625 13.8045,5.27625 C13.20825,5.27625 12.7245,4.79175 12.7245,4.19625 C12.7245,3.60075 13.209,3.117 13.8045,3.117 C14.39925,3.11625 14.8845,3.60075 14.8845,4.19625 Z" id="Shape"></path>
            </g>
        </g>
    </g>
</svg>