<?xml version="1.0" encoding="UTF-8"?>
<svg width="18px" height="18px" viewBox="0 0 18 18" version="1.1" xmlns="http://www.w3.org/2000/svg" xmlns:xlink="http://www.w3.org/1999/xlink">
    <!-- Generator: Sketch 45.2 (43514) - http://www.bohemiancoding.com/sketch -->
    <title>linkedin</title>
    <desc>Created with Sketch.</desc>
    <defs></defs>
    <g id="Page-1" stroke="none" stroke-width="1" fill="none" fill-rule="evenodd">
        <g id="Mobile" transform="translate(-201.000000, -16.000000)" fill-rule="nonzero" fill="#FFFFFF">
            <g id="linkedin" transform="translate(201.000000, 16.000000)">
                <path d="M15.33525,15.339 L12.66975,15.339 L12.66975,11.16225 C12.66975,10.16625 12.6495,8.8845 11.28075,8.8845 C9.891,8.8845 9.67875,9.96825 9.67875,11.08875 L9.67875,15.339 L7.01325,15.339 L7.01325,6.75 L9.57375,6.75 L9.57375,7.92075 L9.60825,7.92075 C9.966,7.24575 10.836,6.53325 12.13575,6.53325 C14.8365,6.53325 15.336,8.31075 15.336,10.6245 L15.336,15.339 L15.33525,15.339 Z M4.00275,5.57475 C3.14475,5.57475 2.4555,4.88025 2.4555,4.026 C2.4555,3.1725 3.1455,2.47875 4.00275,2.47875 C4.85775,2.47875 5.55075,3.1725 5.55075,4.026 C5.55075,4.88025 4.857,5.57475 4.00275,5.57475 Z M5.33925,15.339 L2.66625,15.339 L2.66625,6.75 L5.33925,6.75 L5.33925,15.339 Z M16.66875,0 L1.32825,0 C0.594,0 0,0.5805 0,1.29675 L0,16.70325 C0,17.42025 0.594,18 1.32825,18 L16.6665,18 C17.4,18 18,17.42025 18,16.70325 L18,1.29675 C18,0.5805 17.4,0 16.6665,0 L16.66875,0 Z" id="Shape"></path>
            </g>
        </g>
    </g>
</svg>