<?xml version="1.0" encoding="UTF-8"?>
<svg width="18px" height="18px" viewBox="0 0 18 18" version="1.1" xmlns="http://www.w3.org/2000/svg" xmlns:xlink="http://www.w3.org/1999/xlink">
    <!-- Generator: Sketch 45.2 (43514) - http://www.bohemiancoding.com/sketch -->
    <title>whatsapp</title>
    <desc>Created with Sketch.</desc>
    <defs></defs>
    <g id="Page-1" stroke="none" stroke-width="1" fill="none" fill-rule="evenodd">
        <g id="Mobile" transform="translate(-175.000000, -16.000000)" fill-rule="nonzero" fill="#FFFFFF">
            <g id="whatsapp" transform="translate(175.000000, 16.000000)">
                <path d="M13.1235,10.7865 C12.89775,10.674 11.79825,10.13625 11.5935,10.062 C11.38875,9.98625 11.23875,9.9495 11.08875,10.1745 C10.941,10.39575 10.5105,10.8975 10.38075,11.046 C10.2495,11.19225 10.119,11.2035 9.89625,11.10225 C9.67125,10.98975 8.949,10.7535 8.094,9.9885 C7.428,9.39225 6.981,8.661 6.849,8.436 C6.7185,8.211 6.83475,8.08725 6.9465,7.97475 C7.0485,7.8735 7.17225,7.716 7.28475,7.5825 C7.39425,7.44675 7.43025,7.35675 7.5075,7.2105 C7.5825,7.053 7.54425,6.92925 7.48875,6.8175 C7.4325,6.705 6.98475,5.6025 6.79725,5.163 C6.61725,4.725 6.432,4.7805 6.29325,4.7805 C6.16425,4.76925 6.015,4.76925 5.865,4.76925 C5.715,4.76925 5.47275,4.82475 5.26725,5.0385 C5.0625,5.2635 4.4835,5.8035 4.4835,6.89475 C4.4835,7.986 5.286,9.0435 5.39775,9.201 C5.5095,9.34725 6.9765,11.59725 9.22275,12.56475 C9.75825,12.78975 10.17525,12.92475 10.50075,13.0365 C11.03625,13.20675 11.5245,13.18275 11.91075,13.12725 C12.34125,13.059 13.236,12.5865 13.42275,12.05775 C13.614,11.529 13.614,11.09025 13.55775,10.989 C13.50225,10.88775 13.35525,10.8315 13.13025,10.73025 M9.04575,16.3125 L9.03375,16.3125 C7.70625,16.3125 6.39075,15.9525 5.2425,15.2775 L4.9725,15.117 L2.16,15.84825 L2.91375,13.1145 L2.7345,12.83325 C1.992,11.65125 1.5975,10.29 1.5975,8.88825 C1.5975,4.8045 4.93875,1.4745 9.054,1.4745 C11.0445,1.4745 12.91275,2.25075 14.31975,3.657 C15.726,5.05125 16.5015,6.9195 16.5015,8.8995 C16.4985,12.9825 13.1565,16.31325 9.05025,16.31325 M15.39,2.58675 C13.68,0.93375 11.43,0 9.03375,0 C4.09725,0 0.078,4.0005 0.07575,8.91975 C0.07575,10.49175 0.4875,12.02475 1.272,13.3785 L0,18 L4.75125,16.761 C6.06075,17.46825 7.53375,17.844 9.03375,17.84625 L9.03825,17.84625 C13.977,17.84625 17.99775,13.84425 18,8.92425 C18,6.54225 17.07,4.3005 15.37875,2.616" id="Shape"></path>
            </g>
        </g>
    </g>
</svg>