<?xml version="1.0" encoding="UTF-8"?>
<svg width="24px" height="18px" viewBox="0 0 24 18" version="1.1" xmlns="http://www.w3.org/2000/svg" xmlns:xlink="http://www.w3.org/1999/xlink">
    <!-- Generator: Sketch 45.2 (43514) - http://www.bohemiancoding.com/sketch -->
    <title>youtube</title>
    <desc>Created with Sketch.</desc>
    <defs></defs>
    <g id="Page-1" stroke="none" stroke-width="1" fill="none" fill-rule="evenodd">
        <g id="Mobile" transform="translate(-280.000000, -16.000000)" fill-rule="nonzero" fill="#FFFFFF">
            <g id="youtube" transform="translate(280.000000, 16.000000)">
                <path d="M23.490216,3.205 C23.207407,2.19165677 22.4155592,1.39980902 21.402216,1.117 C19.532216,0.616 12.006216,0.616 12.006216,0.616 C12.006216,0.616 4.49921599,0.606 2.61021599,1.117 C1.59687276,1.39980902 0.805025015,2.19165677 0.522215992,3.205 C0.167736586,5.11951056 -0.00702345927,7.06296279 0.000215992415,9.01 C-0.00565487642,10.9496902 0.16909944,12.8857136 0.522215992,14.793 C0.805025015,15.8063432 1.59687276,16.598191 2.61021599,16.881 C4.47821599,17.383 12.006216,17.383 12.006216,17.383 C12.006216,17.383 19.512216,17.383 21.402216,16.881 C22.4155592,16.598191 23.207407,15.8063432 23.490216,14.793 C23.8359552,12.8850228 24.0033439,10.949005 23.990216,9.01 C24.0047124,7.06365058 23.8373182,5.12020397 23.490216,3.205 L23.490216,3.205 Z M9.60421599,12.601 L9.60421599,5.408 L15.868216,9.01 L9.60421599,12.601 Z" id="Shape"></path>
            </g>
        </g>
    </g>
</svg>